<?xml version="1.0" standalone="no"?>
<!DOCTYPE svg PUBLIC "-//W3C//DTD SVG 20010904//EN"
 "http://www.w3.org/TR/2001/REC-SVG-20010904/DTD/svg10.dtd">
<svg version="1.0" xmlns="http://www.w3.org/2000/svg"
 width="128.000000pt" height="128.000000pt" viewBox="0 0 128.000000 128.000000"
 preserveAspectRatio="xMidYMid meet">
<metadata>
Created by potrace 1.11, written by Peter Selinger 2001-2013
</metadata>
<g transform="translate(0.000000,128.000000) scale(0.100000,-0.100000)"
fill="#000000" stroke="none">
<path d="M0 1068 c0 -198 1 -211 16 -190 9 13 22 21 29 18 7 -2 21 1 31 8 22
15 131 46 160 46 10 0 31 -6 46 -14 20 -10 28 -11 31 -3 7 20 58 -14 89 -58
39 -54 61 -96 54 -102 -4 -4 -67 37 -86 57 -38 38 -110 64 -110 40 0 -5 9 -10
20 -10 11 0 20 -4 20 -9 0 -5 22 -31 49 -58 39 -39 53 -63 66 -109 24 -85 23
-84 39 -90 19 -7 154 57 187 89 13 13 32 27 42 30 10 4 24 21 32 39 l14 33 1
-52 c0 -41 3 -51 14 -47 11 4 17 -5 22 -33 4 -21 22 -70 40 -110 19 -40 34
-77 34 -84 0 -6 16 -41 35 -78 19 -36 40 -79 45 -95 l10 -28 19 23 c27 36 36
55 70 159 36 108 72 190 83 190 4 0 5 7 2 15 -4 8 -1 15 5 15 6 0 11 9 11 20
0 11 5 20 10 20 6 0 10 9 10 20 0 10 5 31 12 45 9 20 9 28 -1 38 -10 9 -21 2
-54 -36 -40 -45 -44 -47 -94 -47 -44 0 -56 4 -81 30 -17 17 -35 30 -40 30 -5
0 -21 9 -36 21 -46 36 -28 0 26 -52 46 -44 49 -49 27 -49 -13 1 -40 9 -59 18
-33 16 -35 20 -36 73 -2 72 -16 99 -53 99 -27 0 -60 24 -49 36 3 2 24 1 46 -4
43 -10 52 -3 52 37 0 30 31 50 72 46 21 -2 42 -6 47 -9 5 -3 12 1 15 10 3 8
10 13 15 10 30 -19 54 27 29 53 -11 10 -8 16 15 33 15 11 41 40 58 64 16 24
36 44 44 44 20 0 45 -40 52 -83 5 -31 3 -35 -23 -41 -41 -10 -74 -34 -74 -52
0 -11 6 -15 20 -11 10 3 20 1 22 -5 6 -16 58 3 59 21 0 10 4 7 10 -9 6 -14 8
-37 5 -51 -3 -14 0 -31 6 -37 8 -8 6 -15 -6 -27 -16 -17 -21 -60 -10 -90 5
-13 102 -65 120 -65 2 0 4 117 4 260 l0 260 -77 0 -77 0 31 -32 c17 -18 34
-44 38 -57 l7 -24 -26 19 c-14 11 -29 29 -32 41 -3 12 -14 29 -24 38 -17 15
-19 15 -30 -2 -9 -14 -10 -15 -6 -1 4 14 -8 16 -115 17 -68 1 -118 -3 -115 -7
3 -5 -4 -18 -15 -28 -12 -10 -27 -32 -35 -49 -11 -24 -13 -25 -10 -6 l5 24
-28 -27 c-29 -28 -41 -26 -41 8 0 19 -3 18 -25 -9 -24 -29 -34 -21 -16 13 6 9
16 32 25 49 l14 33 -364 0 -364 0 0 -212z m1020 198 c0 -2 -8 -10 -17 -17 -16
-13 -17 -12 -4 4 13 16 21 21 21 13z m-607 -35 c21 -35 22 -71 3 -71 -14 0
-21 13 -36 62 -14 46 7 52 33 9z m461 4 c-4 -8 -11 -12 -16 -9 -6 4 -5 10 3
15 19 12 19 11 13 -6z m27 -18 c-10 -9 -11 -8 -5 6 3 10 9 15 12 12 3 -3 0
-11 -7 -18z m-604 -39 c-3 -8 -6 -5 -6 6 -1 11 2 17 5 13 3 -3 4 -12 1 -19z
m343 -79 c-12 -41 -17 -45 -25 -20 -6 21 14 63 26 55 4 -2 3 -18 -1 -35z
m-186 -55 c11 -30 6 -32 -34 -16 -49 21 -51 32 -6 32 22 0 36 -6 40 -16z m-4
-80 c0 -8 -5 -12 -10 -9 -6 4 -8 11 -5 16 9 14 15 11 15 -7z m126 -11 c-10
-10 -19 5 -10 18 6 11 8 11 12 0 2 -7 1 -15 -2 -18z m74 -223 c0 -5 -4 -10
-10 -10 -5 0 -10 5 -10 10 0 6 5 10 10 10 6 0 10 -4 10 -10z m170 -90 c0 -5
-2 -10 -4 -10 -3 0 -8 5 -11 10 -3 6 -1 10 4 10 6 0 11 -4 11 -10z"/>
<path d="M760 1269 c0 -5 5 -7 10 -4 6 3 10 8 10 11 0 2 -4 4 -10 4 -5 0 -10
-5 -10 -11z"/>
<path d="M185 896 c-22 -22 -68 -44 -72 -35 -1 2 -14 -7 -29 -21 -27 -25 -27
-25 -21 -2 7 31 -26 30 -47 -3 -20 -31 -21 -46 -1 -39 19 8 19 -10 0 -26 -12
-10 -15 -42 -15 -166 0 -96 4 -154 10 -154 14 0 12 -28 -2 -33 -19 -6 17 -69
67 -119 22 -23 39 -45 38 -49 -1 -4 27 -11 62 -14 36 -4 65 -11 65 -14 0 -25
112 34 124 65 7 19 -3 18 -26 -3 -23 -21 -82 -20 -123 1 -17 9 -35 16 -42 16
-7 0 -17 9 -23 20 -6 11 -16 20 -22 20 -7 0 -6 -5 2 -15 26 -32 -5 -13 -38 22
-48 53 -51 61 -53 149 -1 63 3 87 20 119 12 21 21 53 21 70 0 43 33 91 79 115
31 15 40 26 38 42 -1 17 4 24 23 28 17 3 26 13 27 28 4 30 -30 29 -62 -2z"/>
<path d="M324 901 c0 -12 6 -17 18 -13 22 5 23 18 2 26 -21 8 -20 9 -20 -13z"/>
<path d="M995 911 c-13 -13 -2 -20 26 -16 46 6 55 21 14 21 -20 0 -38 -2 -40
-5z"/>
<path d="M135 900 c3 -5 8 -10 11 -10 2 0 4 5 4 10 0 6 -5 10 -11 10 -5 0 -7
-4 -4 -10z"/>
<path d="M982 833 c-25 -11 -24 -12 26 -10 29 1 53 7 55 12 3 14 -48 13 -81
-2z"/>
<path d="M1010 790 l-35 -7 43 -2 c27 0 41 3 37 9 -3 6 -7 9 -8 9 -1 -1 -18
-5 -37 -9z"/>
<path d="M312 628 c-27 -27 -1 -49 43 -38 6 2 18 2 28 2 36 -2 11 32 -33 43
-15 3 -30 1 -38 -7z"/>
<path d="M150 617 c-34 -17 -38 -43 -6 -42 13 0 27 3 31 7 4 3 20 2 36 -2 26
-8 29 -6 29 15 0 15 -7 25 -22 29 -32 8 -40 7 -68 -7z"/>
<path d="M468 533 c-3 -4 -13 -32 -22 -60 -18 -53 -15 -85 9 -113 8 -8 16 -27
20 -41 8 -33 51 -74 87 -83 14 -3 34 -9 45 -13 17 -6 17 -5 -1 15 -10 12 -22
20 -26 17 -4 -2 -17 7 -30 20 -13 13 -27 22 -31 19 -5 -3 -9 2 -9 11 0 9 -4
13 -10 10 -20 -12 -9 12 15 35 14 13 25 21 25 17 0 -3 22 18 49 46 50 52 52
73 6 43 -13 -9 -33 -16 -45 -16 -11 0 -20 -7 -20 -15 0 -19 -49 -20 -56 -1 -3
7 2 31 11 52 13 32 14 40 1 52 -7 8 -16 10 -18 5z"/>
<path d="M1251 526 c-10 -12 -8 -17 8 -26 23 -12 29 2 12 28 -6 10 -10 10 -20
-2z"/>
<path d="M235 482 c-3 -3 -5 -9 -5 -14 0 -13 83 -5 87 7 3 11 -72 17 -82 7z"/>
<path d="M180 404 c0 -25 27 -32 100 -26 66 5 71 7 40 14 -19 4 -55 5 -79 1
-31 -4 -46 -2 -52 8 -5 8 -9 9 -9 3z"/>
<path d="M1258 265 c-6 -14 -19 -25 -29 -25 -10 0 -22 -6 -26 -14 -4 -7 -31
-25 -59 -39 -33 -17 -59 -39 -73 -62 -11 -20 -25 -34 -30 -30 -17 10 -21 -12
-5 -26 8 -7 22 -25 30 -41 14 -28 15 -28 114 -28 l100 0 0 145 c0 80 -2 145
-5 145 -3 0 -11 -11 -17 -25z"/>
<path d="M1017 183 c-4 -3 -7 -11 -7 -17 0 -6 5 -5 12 2 6 6 9 14 7 17 -3 3
-9 2 -12 -2z"/>
<path d="M199 115 c-37 -20 -106 -42 -157 -50 -23 -4 -42 -10 -42 -14 0 -13
12 -21 24 -14 6 4 22 8 36 9 14 1 35 5 46 9 17 5 26 0 40 -24 15 -25 25 -31
51 -31 18 0 33 4 33 10 0 5 12 21 27 35 28 25 53 33 53 16 0 -5 12 -11 28 -14
85 -18 132 -31 132 -37 0 -4 42 -8 93 -8 l92 -1 -90 19 c-49 10 -141 31 -202
46 -92 23 -113 31 -113 46 0 21 -15 22 -51 3z"/>
<path d="M791 78 c19 -18 42 -44 51 -57 9 -13 22 -21 28 -19 16 5 -77 108 -98
108 -11 0 -5 -11 19 -32z"/>
<path d="M898 3 c7 -3 16 -2 19 1 4 3 -2 6 -13 5 -11 0 -14 -3 -6 -6z"/>
</g>
</svg>
